# xmcd
#
# Track frame offsets:
#	150
#	17497
#	34827
#	48900
#	63425
#	80602
#	100179
#	119832
#	136862
#	154012
#	168210
#
# Disc length: 3168 seconds
#
# Revision: 0
# Processed by: cddbd v1.5.2PL0 Copyright (c) Steve Scherf et al.
# Submitted via: EasyCDDAExtractor 7.1.2.1
#
DISCID=870c5e0b
DTITLE=The Mavericks - Sampler
DYEAR=1997
DGENRE=Country
TTITLE0=To Be With You
TTITLE1=What A Cryin' Shame
TTITLE2=Some Should Tell Her
TTITLE3=O What A Thrill
TTITLE4=Dream River
TTITLE5=All You Ever Do Is Bring Me Down
TTITLE6=Dance The Night Away
TTITLE7=I've For This Feeling
TTITLE8=Here Comes The Rain
TTITLE9=I Don't Even Know Your Name
TTITLE10=Fool #1
EXTD=
EXTT0=
EXTT1=
EXTT2=
EXTT3=
EXTT4=
EXTT5=
EXTT6=
EXTT7=
EXTT8=
EXTT9=
EXTT10=
PLAYORDER=
